HIERARCHY
ROOT Hips
{
 OFFSET 0.000000 0.000000 0.000000
 CHANNELS 6 Xposition Yposition Zposition Yrotation Xrotation Zrotation
 JOINT Chest
 {
  OFFSET 0.000000 9.588913 -0.003946
  CHANNELS 3 Yrotation Xrotation Zrotation
  JOINT Chest2
  {
   OFFSET 0.000000 9.541882 0.008053
   CHANNELS 3 Yrotation Xrotation Zrotation
   JOINT Chest3
   {
    OFFSET 0.000000 9.501360 0.000000
    CHANNELS 3 Yrotation Xrotation Zrotation
    JOINT Chest4
    {
     OFFSET 0.000000 9.491660 0.000000
     CHANNELS 3 Yrotation Xrotation Zrotation
     JOINT Neck
     {
      OFFSET 0.000000 14.331917 0.000000
      CHANNELS 3 Yrotation Xrotation Zrotation
      JOINT Head
      {
       OFFSET 0.000000 8.884799 0.017034
       CHANNELS 3 Yrotation Xrotation Zrotation
       End Site
       {
        OFFSET 0.000000 16.896195 0.008993
       }
      }
     }
     JOINT RightCollar
     {
      OFFSET -2.923010 9.499495 0.000000
      CHANNELS 3 Yrotation Xrotation Zrotation
      JOINT RightShoulder
      {
       OFFSET -13.795216 0.000000 0.000000
       CHANNELS 3 Yrotation Xrotation Zrotation
       JOINT RightElbow
       {
        OFFSET -30.272209 0.000000 0.000000
        CHANNELS 3 Yrotation Xrotation Zrotation
        JOINT RightWrist
        {
         OFFSET -24.478199 0.000000 0.000000
         CHANNELS 3 Yrotation Xrotation Zrotation
         End Site
         {
          OFFSET -18.090752 0.000000 0.000000
         }
        }
       }
      }
     }
     JOINT LeftCollar
     {
      OFFSET 2.923010 9.499495 0.000000
      CHANNELS 3 Yrotation Xrotation Zrotation
      JOINT LeftShoulder
      {
       OFFSET 13.795216 0.000000 0.000000
       CHANNELS 3 Yrotation Xrotation Zrotation
       JOINT LeftElbow
       {
        OFFSET 30.272209 0.000000 0.000000
        CHANNELS 3 Yrotation Xrotation Zrotation
        JOINT LeftWrist
        {
         OFFSET 24.478199 0.000000 0.000000
         CHANNELS 3 Yrotation Xrotation Zrotation
         End Site
         {
          OFFSET 18.090752 0.000000 0.000000
         }
        }
       }
      }
     }
    }
   }
  }
 }
 JOINT RightHip
 {
  OFFSET -7.826875 0.019532 0.001973
  CHANNELS 3 Yrotation Xrotation Zrotation
  JOINT RightKnee
  {
   OFFSET 0.000000 -40.546152 -0.001885
   CHANNELS 3 Yrotation Xrotation Zrotation
   JOINT RightAnkle
   {
    OFFSET 0.000000 -39.417092 -0.003189
    CHANNELS 3 Yrotation Xrotation Zrotation
    JOINT RightToe
    {
     OFFSET 0.000000 -7.579396 17.243563
     CHANNELS 3 Yrotation Xrotation Zrotation
     End Site
     {
      OFFSET 0.000000 -1.500329 6.694466
     }
    }
   }
  }
 }
 JOINT LeftHip
 {
  OFFSET 7.826875 0.019532 0.001973
  CHANNELS 3 Yrotation Xrotation Zrotation
  JOINT LeftKnee
  {
   OFFSET 0.000000 -40.546152 -0.001885
   CHANNELS 3 Yrotation Xrotation Zrotation
   JOINT LeftAnkle
   {
    OFFSET 0.000000 -39.417092 -0.003189
    CHANNELS 3 Yrotation Xrotation Zrotation
    JOINT LeftToe
    {
     OFFSET 0.000000 -7.579396 17.243563
     CHANNELS 3 Yrotation Xrotation Zrotation
     End Site
     {
      OFFSET 0.000000 -1.500329 6.694466
     }
    }
   }
  }
 }
}
MOTION
Frames: 13
Frame Time: 0.008333
0.000000 87.345680 0.000000 0.000000 -5.767889 0.000000 0.000000 11.653876 0.000000 0.000000 -5.885988 0.000000 0.000000 -0.000000 0.000000 0.000000 -0.000000 0.000000 0.000000 12.528808 0.000000 0.000000 0.711711 0.000000 0.000000 -0.000000 0.000000 0.000000 -0.000000 0.000000 2.309063 -0.000000 0.000000 -2.309063 -0.000000 -0.000000 0.000000 -0.000000 0.000000 0.000000 0.000000 0.000000 -2.309063 0.000000 0.000000 2.309063 -0.000000 0.000000 0.000000 8.520374 0.000000 0.000000 1.905768 0.000000 -0.000000 -4.658254 0.000000 0.000000 -0.000000 0.000000 0.000000 8.520374 0.000000 0.000000 1.905768 0.000000 -0.000000 -4.658254 0.000000 0.000000 -0.000000 0.000000
-3.984798 89.176764 -10.664836 175.950955 -8.354969 -0.715932 2.780776 3.595728 0.683884 1.573711 2.056721 0.423852 1.969832 2.569017 0.538723 1.573711 2.056721 0.423852 1.854624 28.148092 0.191539 1.998347 5.375750 -0.210152 4.437038 3.969817 -1.932988 -15.965180 -2.945956 92.893756 5.932572 -0.468907 2.355008 0.783583 -6.838001 1.529967 -4.757031 1.639303 0.082467 12.766950 0.541584 -92.266867 -0.951167 -12.139596 -3.075134 -2.699450 -1.533830 0.548135 -9.428832 10.035855 0.076799 4.796717 4.830347 0.195555 8.295590 -5.746070 -1.632189 -0.000670 -0.110128 -0.002868 10.489712 8.548840 1.302134 -4.475247 2.862174 -0.399856 -3.541300 -3.772521 1.130343 0.006681 0.114449 0.004367
-3.983700 89.176950 -10.660236 175.952266 -8.352807 -0.716073 2.776186 3.598255 0.684715 1.571193 2.058522 0.424313 1.966689 2.571269 0.539293 1.571193 2.058522 0.424313 1.829030 28.120859 0.180765 1.972333 5.339884 -0.216259 4.444125 3.976297 -1.938150 -16.029585 -2.851008 92.857241 6.168978 -0.507030 2.546573 0.743909 -6.835992 1.544584 -4.747747 1.645002 0.085172 12.820294 0.581161 -92.214950 -1.025478 -12.104239 -3.215020 -2.669936 -1.536947 0.547005 -9.430034 10.032577 0.077638 4.798301 4.826110 0.198401 8.286177 -5.740104 -1.632418 -0.000018 -0.109777 -0.003306 10.495278 8.544652 1.304778 -4.479745 2.859622 -0.403708 -3.544516 -3.768518 1.131455 0.006032 0.115883 0.004371
-3.982482 89.177232 -10.655122 175.952560 -8.350972 -0.715665 2.771513 3.601027 0.685633 1.568882 2.060217 0.424604 1.963804 2.573389 0.539651 1.568882 2.060217 0.424604 1.804361 28.093439 0.170544 1.947221 5.303817 -0.221963 4.449315 3.983173 -1.947981 -16.115295 -2.745932 92.823828 6.428302 -0.534811 2.759300 0.710150 -6.837367 1.569288 -4.739818 1.655818 0.088385 12.889413 0.625311 -92.152754 -1.116902 -12.058668 -3.388528 -2.629588 -1.541150 0.542365 -9.429951 10.028733 0.079340 4.797201 4.822993 0.200965 8.274594 -5.733785 -1.632654 -0.000102 -0.109515 -0.004170 10.499519 8.540927 1.306774 -4.481262 2.856668 -0.407876 -3.547314 -3.764546 1.131887 0.005555 0.117299 0.005061
-3.978463 89.177641 -10.649520 175.952084 -8.349511 -0.731004 2.767200 3.603427 0.703468 1.567869 2.061807 0.424264 1.962537 2.575380 0.539228 1.567869 2.061807 0.424264 1.779691 28.066638 0.160735 1.922027 5.268571 -0.227208 4.448328 3.989258 -1.960646 -16.210481 -2.635459 92.794772 6.705052 -0.558663 2.988579 0.683068 -6.840704 1.599637 -4.735662 1.669922 0.093990 12.967622 0.675556 -92.081040 -1.226280 -12.009468 -3.595743 -2.578582 -1.546945 0.535997 -9.425651 10.025468 0.097648 4.795713 4.826413 0.204576 8.268684 -5.748276 -1.635769 -0.000945 -0.091407 -0.004770 10.502486 8.533967 1.324729 -4.480606 2.851392 -0.409488 -3.546898 -3.736347 1.127829 0.004785 0.096718 0.006139
-3.977117 89.178071 -10.643876 175.947101 -8.347671 -0.728857 2.765835 3.606037 0.704581 1.567413 2.062980 0.423710 1.961966 2.576849 0.538537 1.567413 2.062980 0.423710 1.754556 28.041187 0.150247 1.896495 5.235089 -0.233089 4.440912 3.997205 -1.975573 -16.305940 -2.523789 92.769225 6.996074 -0.587651 3.230610 0.661758 -6.847017 1.631493 -4.737512 1.686363 0.100761 13.056213 0.733812 -92.001836 -1.355364 -11.958513 -3.832898 -2.518473 -1.557689 0.525595 -9.419004 10.017657 0.095541 4.793744 4.827213 0.206296 8.278866 -5.740616 -1.636041 -0.000605 -0.091289 -0.003888 10.508555 8.530806 1.323874 -4.480087 2.848263 -0.409804 -3.550047 -3.732911 1.125153 0.004854 0.097404 0.006991
-3.975376 89.178538 -10.638117 175.942941 -8.345612 -0.728190 2.765020 3.608271 0.705228 1.567046 2.063950 0.423291 1.961507 2.578064 0.538015 1.567046 2.063950 0.423291 1.729404 28.016025 0.139996 1.870901 5.201999 -0.238701 4.428643 4.007024 -1.990895 -16.392726 -2.413260 92.743338 7.299086 -0.631133 3.484953 0.644010 -6.856799 1.661919 -4.744939 1.703821 0.110510 13.158185 0.801040 -91.919351 -1.505774 -11.900981 -4.097711 -2.453462 -1.575729 0.512266 -9.413290 10.010990 0.096896 4.788189 4.826276 0.205074 8.291242 -5.731938 -1.635971 -0.000686 -0.090983 -0.002921 10.516485 8.527187 1.325940 -4.481971 2.844690 -0.412407 -3.552920 -3.729444 1.124258 0.004987 0.098076 0.007069
-3.973377 89.179040 -10.632471 175.939383 -8.344415 -0.727728 2.764582 3.611455 0.704289 1.566825 2.065625 0.422810 1.961230 2.580160 0.537421 1.566825 2.065625 0.422810 1.703885 27.989049 0.130913 1.844629 5.166566 -0.242944 4.412270 4.013908 -2.005077 -16.469994 -2.303630 92.715822 7.612910 -0.683052 3.748073 0.627301 -6.866366 1.691393 -4.750981 1.718281 0.125373 13.269686 0.876939 -91.836150 -1.672487 -11.835604 -4.390716 -2.392967 -1.598460 0.498983 -9.410672 10.006672 0.100643 4.780123 4.824094 0.203085 8.296725 -5.723698 -1.636444 -0.001731 -0.090211 -0.002879 10.524796 8.524427 1.329506 -4.488707 2.840715 -0.416829 -3.552275 -3.725018 1.123762 0.005140 0.098057 0.007266
-3.971213 89.179526 -10.626750 175.936206 -8.342952 -0.726525 2.763853 3.614883 0.702938 1.566328 2.067600 0.421941 1.960606 2.582633 0.536340 1.566328 2.067600 0.421941 1.677715 27.960087 0.122458 1.817490 5.128570 -0.246348 4.392560 4.017644 -2.017970 -16.537723 -2.193980 92.685728 7.935190 -0.736593 4.018245 0.611534 -6.873979 1.717038 -4.752582 1.730462 0.143347 13.394211 0.959420 -91.752214 -1.848535 -11.762099 -4.711664 -2.346072 -1.625131 0.485998 -9.410301 10.001767 0.101700 4.771336 4.821808 0.201893 8.311861 -5.715801 -1.637729 -0.001822 -0.089041 -0.002278 10.533998 8.521600 1.331796 -4.497371 2.836217 -0.419044 -3.552021 -3.719123 1.120863 0.005691 0.097316 0.008152
-3.968756 89.179965 -10.620780 175.932772 -8.340435 -0.724945 2.762445 3.617245 0.702131 1.565338 2.068944 0.420474 1.959363 2.584320 0.534506 1.565338 2.068944 0.420474 1.651984 27.930413 0.114596 1.790702 5.089682 -0.249196 4.374791 4.022506 -2.028858 -16.595650 -2.084639 92.650416 8.265371 -0.798089 4.296366 0.594643 -6.878905 1.738570 -4.749925 1.744385 0.162383 13.532873 1.044068 -91.666642 -2.030048 -11.684907 -5.055687 -2.311708 -1.656827 0.472180 -9.408516 9.994995 0.099986 4.765866 4.819246 0.200905 8.338503 -5.706954 -1.638770 -0.000134 -0.087981 -0.000684 10.540961 8.518000 1.331768 -4.501435 2.831337 -0.418235 -3.552357 -3.712686 1.115469 0.006572 0.096614 0.009666
-3.966153 89.180341 -10.614441 175.926616 -8.336351 -0.721588 2.761345 3.618412 0.700667 1.564504 2.069552 0.418632 1.958310 2.585089 0.532202 1.564504 2.069552 0.418632 1.625976 27.900392 0.107384 1.763468 5.050361 -0.251263 4.361103 4.030157 -2.038417 -16.648442 -1.977808 92.609355 8.603051 -0.872893 4.582138 0.570733 -6.880330 1.761777 -4.744214 1.760091 0.181921 13.676076 1.129206 -91.579857 -2.217111 -11.614434 -5.417427 -2.284645 -1.694179 0.459413 -9.402307 9.987217 0.100457 4.765015 4.815254 0.199279 8.346726 -5.697712 -1.639606 0.000259 -0.086491 0.000102 10.545467 8.513569 1.328866 -4.500090 2.825827 -0.416978 -3.551241 -3.705890 1.109828 0.007337 0.095975 0.011105
-3.963405 89.180669 -10.607766 175.916970 -8.331168 -0.716280 2.761354 3.619139 0.698844 1.564264 2.069947 0.417003 1.958001 2.585590 0.530165 1.564264 2.069947 0.417003 1.598270 27.869426 0.099877 1.734435 5.009813 -0.253268 4.347112 4.039840 -2.049335 -16.699307 -1.876711 92.565907 8.945337 -0.960392 4.878122 0.538942 -6.881088 1.784087 -4.737518 1.774051 0.202247 13.812360 1.217640 -91.495752 -2.411587 -11.559255 -5.794818 -2.261452 -1.736087 0.451671 -9.393886 9.979017 0.102072 4.765401 4.809817 0.198996 8.338468 -5.688957 -1.641497 -0.001102 -0.083976 -0.000238 10.552106 8.509473 1.325073 -4.498959 2.818060 -0.416502 -3.550413 -3.698467 1.103651 0.007702 0.095582 0.012655
-3.960101 89.181018 -10.601074 175.905274 -8.327276 -0.711639 2.761732 3.620154 0.697797 1.564317 2.070595 0.416077 1.958064 2.586403 0.529011 1.564317 2.070595 0.416077 1.569198 27.837441 0.091965 1.703992 4.967951 -0.255405 4.332795 4.051551 -2.062326 -16.749525 -1.780700 92.523752 9.293869 -1.069964 5.189685 0.500559 -6.883025 1.801119 -4.730909 1.786325 0.221917 13.939125 1.310258 -91.416066 -2.614597 -11.523759 -6.188212 -2.238254 -1.781115 0.449874 -9.385287 9.971579 0.101727 4.765609 4.804527 0.200715 8.340434 -5.680421 -1.643982 -0.001594 -0.081228 -0.000525 10.561095 8.507639 1.323671 -4.500717 2.808093 -0.416413 -3.549576 -3.690615 1.096644 0.007284 0.095426 0.013941
